<?xml version="1.0" encoding="utf-8"?>
<!-- Generator: Adobe Illustrator 26.0.0, SVG Export Plug-In . SVG Version: 6.00 Build 0)  -->
<svg version="1.1" id="Livello_1" xmlns="http://www.w3.org/2000/svg" xmlns:xlink="http://www.w3.org/1999/xlink" x="0px" y="0px"
	 viewBox="0 0 500 500" style="enable-background:new 0 0 500 500;" xml:space="preserve">
<style type="text/css">
	.st0{fill:none;stroke:#000000;stroke-width:7;stroke-miterlimit:10;}
</style>
<path d="M345.9,241.6c-1.7,0.1-3.4,1.1-4.3,2.6L313,293.7h-60.7c-2.9,0-5.3,2.4-5.3,5.3v85.8c0,2.9,2.4,5.3,5.3,5.3h89
	c2.9,0,5.3-2.4,5.3-5.3v-22.9c0-1.1-0.4-2.2-1.2-3c-0.8-0.8-1.8-1.2-2.9-1.2c-1.1,0-2.2,0.4-2.9,1.2c-0.8,0.8-1.2,1.9-1.2,3v20
	h-83.1v-80h52.9l-9.7,16.7c-1.4,2.5-0.5,5.8,1.9,7.3l77.1,44.4c2.5,1.4,5.8,0.5,7.3-1.9l43-74.3c1.4-2.5,0.5-5.8-1.9-7.3l-77.1-44.4
	C348,241.8,346.9,241.6,345.9,241.6L345.9,241.6z M347.3,250.9l72,41.4l-40.1,69.3l-72-41.4L347.3,250.9z M391.5,287.5
	c-3.6,0.2-7,2.2-8.9,5.5c-3.1,5.3-1.2,12.2,4.1,15.2c5.3,3,12.2,1.2,15.2-4c3.1-5.3,1.1-12.2-4.1-15.2
	C395.9,287.9,393.7,287.4,391.5,287.5L391.5,287.5z M362.4,295.2c-3.5,0.2-6.9,2.2-8.9,5.5c-3.1,5.3-1.2,12.2,4.1,15.2
	c5.3,3,12.2,1.2,15.2-4c3.1-5.3,1.1-12.2-4.1-15.2C366.7,295.5,364.5,295.1,362.4,295.2L362.4,295.2z M392.1,295.7
	c0.5,0,1.1,0.1,1.6,0.4c1.4,0.8,1.9,2.6,1.1,3.9c-0.8,1.4-2.5,1.8-4,1c-1.4-0.8-1.9-2.5-1.1-3.9
	C390.3,296.3,391.2,295.8,392.1,295.7L392.1,295.7z M333.3,302.9c-3.5,0.2-6.9,2.2-8.9,5.5c-3.1,5.3-1.2,12.2,4.1,15.2
	c5.3,3,12.2,1.2,15.2-4c3.1-5.3,1.1-12.2-4.1-15.2C337.6,303.2,335.4,302.8,333.3,302.9L333.3,302.9z M363,303.5L363,303.5
	c0.6,0,1.1,0.1,1.6,0.4c1.4,0.8,1.9,2.6,1.1,3.9c-0.8,1.4-2.5,1.8-4,1c-1.4-0.8-1.9-2.5-1.1-3.9C361.2,304,362,303.5,363,303.5
	L363,303.5z M275.5,309.7c-6.1,0-11.1,5-11.1,11.1s5,11.1,11.1,11.1s11.2-5,11.2-11.1C286.7,314.6,281.6,309.7,275.5,309.7z
	 M333.9,311.1c0.6,0,1.1,0.1,1.6,0.4c1.4,0.8,1.9,2.6,1.1,3.9c-0.8,1.4-2.5,1.8-4,1c-1.4-0.8-1.9-2.5-1.1-3.9
	C332.1,311.7,332.9,311.2,333.9,311.1L333.9,311.1z M275.5,317.9c1.7,0,2.9,1.3,2.9,2.9c0,1.6-1.3,2.9-2.9,2.9s-2.9-1.2-2.9-2.9
	S273.8,317.9,275.5,317.9z M296.8,330.8c-6.1,0-11.1,5-11.1,11.1s5,11.1,11.1,11.1c6.1,0,11.1-5,11.1-11.1S302.9,330.8,296.8,330.8z
	 M296.8,339.1c1.7,0,2.9,1.2,2.9,2.8s-1.2,2.9-2.9,2.9c-1.7,0-2.9-1.2-2.9-2.9S295.1,339.1,296.8,339.1z M275.5,352
	c-6.1,0-11.1,5-11.1,11.1c0,6.1,5.1,11.1,11.1,11.1c6.1,0,11.2-4.9,11.2-11.1C286.7,357,281.6,352,275.5,352z M318.2,352
	c-6.1,0-11.1,5-11.1,11.1c0,6.1,5.1,11.1,11.1,11.1c6.1,0,11.1-5,11.1-11.1C329.3,357,324.3,352,318.2,352z M275.5,360.2
	c1.7,0,2.9,1.3,2.9,2.9c0,1.6-1.2,2.8-2.9,2.8c-1.7,0-2.9-1.2-2.9-2.8C272.6,361.5,273.8,360.2,275.5,360.2z M318.2,360.2
	c1.7,0,2.9,1.2,2.9,2.9c0,1.6-1.2,2.8-2.9,2.8c-1.7,0-2.9-1.2-2.9-2.8C315.3,361.5,316.5,360.2,318.2,360.2z"/>
<g>
	<path d="M123,156.2l-4.6,13.9h-2.7l-3.4-10.3l-3.5,10.3H106l-4.6-13.9h2.7l3.5,10.6l3.6-10.6h2.4l3.5,10.6l3.6-10.6H123z"/>
	<path d="M131.7,160.5c0.8,0.7,1.2,1.9,1.2,3.4v6.2h-2.3v-1.3c-0.3,0.5-0.7,0.8-1.3,1.1s-1.2,0.4-2,0.4s-1.5-0.1-2.1-0.4
		c-0.6-0.3-1.1-0.6-1.4-1.1c-0.3-0.5-0.5-1-0.5-1.6c0-1,0.4-1.7,1.1-2.3c0.7-0.6,1.8-0.9,3.3-0.9h2.7v-0.2c0-0.7-0.2-1.3-0.7-1.7
		c-0.4-0.4-1.1-0.6-2-0.6c-0.6,0-1.2,0.1-1.8,0.3c-0.6,0.2-1.1,0.4-1.5,0.8l-1-1.8c0.6-0.4,1.2-0.7,2-1c0.8-0.2,1.6-0.3,2.5-0.3
		C129.7,159.4,130.9,159.8,131.7,160.5z M129.5,168c0.5-0.3,0.8-0.7,1-1.2v-1.2h-2.6c-1.4,0-2.1,0.5-2.1,1.4c0,0.4,0.2,0.8,0.5,1.1
		c0.4,0.3,0.9,0.4,1.5,0.4C128.4,168.4,129,168.3,129.5,168z"/>
	<path d="M145.4,160.6c0.8,0.8,1.2,1.9,1.2,3.5v6.1h-2.5v-5.8c0-0.9-0.2-1.6-0.7-2.1c-0.4-0.5-1.1-0.7-1.9-0.7
		c-0.9,0-1.6,0.3-2.2,0.8s-0.8,1.3-0.8,2.4v5.4h-2.5v-10.6h2.4v1.4c0.4-0.5,0.9-0.9,1.5-1.1c0.6-0.3,1.3-0.4,2.1-0.4
		C143.5,159.4,144.6,159.8,145.4,160.6z"/>
	<path d="M159,160.6c0.8,0.8,1.2,1.9,1.2,3.5v6.1h-2.5v-5.8c0-0.9-0.2-1.6-0.7-2.1c-0.4-0.5-1.1-0.7-1.9-0.7c-0.9,0-1.6,0.3-2.2,0.8
		s-0.8,1.3-0.8,2.4v5.4h-2.5v-10.6h2.4v1.4c0.4-0.5,0.9-0.9,1.5-1.1c0.6-0.3,1.3-0.4,2.1-0.4C157.1,159.4,158.1,159.8,159,160.6z"/>
	<path d="M170.9,160.5c0.8,0.7,1.2,1.9,1.2,3.4v6.2h-2.3v-1.3c-0.3,0.5-0.7,0.8-1.3,1.1s-1.2,0.4-2,0.4s-1.5-0.1-2.1-0.4
		c-0.6-0.3-1.1-0.6-1.4-1.1c-0.3-0.5-0.5-1-0.5-1.6c0-1,0.4-1.7,1.1-2.3c0.7-0.6,1.8-0.9,3.3-0.9h2.7v-0.2c0-0.7-0.2-1.3-0.7-1.7
		c-0.4-0.4-1.1-0.6-2-0.6c-0.6,0-1.2,0.1-1.8,0.3c-0.6,0.2-1.1,0.4-1.5,0.8l-1-1.8c0.6-0.4,1.2-0.7,2-1c0.8-0.2,1.6-0.3,2.5-0.3
		C168.9,159.4,170.1,159.8,170.9,160.5z M168.7,168c0.5-0.3,0.8-0.7,1-1.2v-1.2h-2.6c-1.4,0-2.1,0.5-2.1,1.4c0,0.4,0.2,0.8,0.5,1.1
		c0.4,0.3,0.9,0.4,1.5,0.4C167.7,168.4,168.2,168.3,168.7,168z"/>
	<path d="M189.5,160.1c0.8,0.4,1.5,1.1,1.9,1.9s0.7,1.8,0.7,2.8s-0.2,2-0.7,2.8s-1.1,1.5-1.9,1.9s-1.7,0.7-2.8,0.7
		c-1.4,0-2.6-0.5-3.4-1.4v5.1h-2.5v-14.4h2.4v1.4c0.4-0.5,0.9-0.9,1.5-1.1c0.6-0.3,1.3-0.4,2-0.4
		C187.7,159.4,188.7,159.6,189.5,160.1z M188.7,167.2c0.6-0.6,0.9-1.4,0.9-2.4s-0.3-1.8-0.9-2.4s-1.3-0.9-2.3-0.9
		c-0.6,0-1.1,0.1-1.6,0.4c-0.5,0.3-0.9,0.7-1.1,1.2c-0.3,0.5-0.4,1.1-0.4,1.7c0,0.7,0.1,1.2,0.4,1.7c0.3,0.5,0.7,0.9,1.1,1.2
		c0.5,0.3,1,0.4,1.6,0.4C187.3,168.1,188.1,167.8,188.7,167.2z"/>
	<path d="M194.4,155.4h2.5v14.7h-2.5V155.4z"/>
	<path d="M207.8,160.5c0.8,0.7,1.2,1.9,1.2,3.4v6.2h-2.3v-1.3c-0.3,0.5-0.7,0.8-1.3,1.1s-1.2,0.4-2,0.4s-1.5-0.1-2.1-0.4
		c-0.6-0.3-1.1-0.6-1.4-1.1c-0.3-0.5-0.5-1-0.5-1.6c0-1,0.4-1.7,1.1-2.3c0.7-0.6,1.8-0.9,3.3-0.9h2.7v-0.2c0-0.7-0.2-1.3-0.7-1.7
		c-0.4-0.4-1.1-0.6-2-0.6c-0.6,0-1.2,0.1-1.8,0.3c-0.6,0.2-1.1,0.4-1.5,0.8l-1-1.8c0.6-0.4,1.2-0.7,2-1c0.8-0.2,1.6-0.3,2.5-0.3
		C205.8,159.4,207,159.8,207.8,160.5z M205.5,168c0.5-0.3,0.8-0.7,1-1.2v-1.2H204c-1.4,0-2.1,0.5-2.1,1.4c0,0.4,0.2,0.8,0.5,1.1
		c0.4,0.3,0.9,0.4,1.5,0.4C204.5,168.4,205.1,168.3,205.5,168z"/>
	<path d="M221.9,159.5l-5,11.4c-0.5,1.2-1,2-1.7,2.4c-0.7,0.5-1.5,0.7-2.4,0.7c-0.5,0-1.1-0.1-1.6-0.3s-0.9-0.4-1.3-0.7l1-1.8
		c0.2,0.2,0.5,0.4,0.8,0.5c0.3,0.1,0.7,0.2,1,0.2c0.4,0,0.8-0.1,1.1-0.3c0.3-0.2,0.5-0.6,0.8-1.1l0.2-0.4l-4.6-10.6h2.6l3.3,7.8
		l3.4-7.8H221.9z"/>
	<path d="M239.3,155.4v14.7H237v-1.4c-0.4,0.5-0.9,0.9-1.5,1.1c-0.6,0.3-1.3,0.4-2,0.4c-1,0-1.9-0.2-2.7-0.7s-1.5-1.1-1.9-1.9
		s-0.7-1.8-0.7-2.8s0.2-2,0.7-2.8s1.1-1.5,1.9-1.9s1.7-0.7,2.7-0.7c0.7,0,1.3,0.1,1.9,0.4c0.6,0.2,1.1,0.6,1.5,1.1v-5.4H239.3z
		 M235.4,167.7c0.5-0.3,0.9-0.7,1.1-1.2c0.3-0.5,0.4-1.1,0.4-1.7c0-0.7-0.1-1.2-0.4-1.7c-0.3-0.5-0.7-0.9-1.1-1.2
		c-0.5-0.3-1-0.4-1.6-0.4c-0.6,0-1.1,0.1-1.6,0.4c-0.5,0.3-0.9,0.7-1.1,1.2c-0.3,0.5-0.4,1.1-0.4,1.7c0,0.7,0.1,1.2,0.4,1.7
		c0.3,0.5,0.7,0.9,1.1,1.2c0.5,0.3,1,0.4,1.6,0.4C234.3,168.1,234.9,168,235.4,167.7z"/>
	<path d="M242.7,157.3c-0.3-0.3-0.5-0.6-0.5-1.1c0-0.4,0.2-0.8,0.5-1.1c0.3-0.3,0.7-0.4,1.1-0.4c0.4,0,0.8,0.1,1.1,0.4
		c0.3,0.3,0.5,0.6,0.5,1c0,0.4-0.1,0.8-0.4,1.1c-0.3,0.3-0.7,0.4-1.1,0.4C243.4,157.8,243,157.6,242.7,157.3z M242.6,159.5h2.5v10.6
		h-2.5V159.5z"/>
	<path d="M250.2,169.5c-0.9-0.5-1.6-1.1-2-1.9c-0.5-0.8-0.7-1.8-0.7-2.8c0-1,0.2-2,0.7-2.8c0.5-0.8,1.2-1.5,2-1.9s1.9-0.7,3-0.7
		c1,0,2,0.2,2.7,0.6s1.4,1,1.8,1.8l-1.9,1.1c-0.3-0.5-0.7-0.9-1.1-1.1c-0.5-0.2-1-0.4-1.5-0.4c-0.9,0-1.7,0.3-2.3,0.9
		c-0.6,0.6-0.9,1.4-0.9,2.4c0,1,0.3,1.8,0.9,2.4c0.6,0.6,1.4,0.9,2.3,0.9c0.5,0,1-0.1,1.5-0.4c0.5-0.2,0.8-0.6,1.1-1.1l1.9,1.1
		c-0.4,0.8-1,1.4-1.8,1.8s-1.7,0.6-2.7,0.6C252.1,170.2,251.1,170,250.2,169.5z"/>
	<path d="M269.6,165.6h-8.3c0.1,0.8,0.5,1.4,1.1,1.9c0.6,0.5,1.4,0.7,2.3,0.7c1.2,0,2.1-0.4,2.9-1.2l1.3,1.5c-0.5,0.6-1.1,1-1.8,1.3
		c-0.7,0.3-1.5,0.4-2.5,0.4c-1.2,0-2.2-0.2-3.1-0.7c-0.9-0.5-1.6-1.1-2.1-1.9c-0.5-0.8-0.7-1.8-0.7-2.8c0-1,0.2-2,0.7-2.8
		c0.5-0.8,1.1-1.5,2-1.9c0.8-0.5,1.8-0.7,2.8-0.7c1,0,2,0.2,2.8,0.7c0.8,0.5,1.4,1.1,1.9,1.9s0.7,1.8,0.7,2.9
		C269.7,165,269.6,165.3,269.6,165.6z M262.3,162.1c-0.5,0.5-0.9,1.1-1,1.9h6c-0.1-0.8-0.4-1.4-1-1.9c-0.5-0.5-1.2-0.7-2-0.7
		C263.5,161.4,262.8,161.6,262.3,162.1z"/>
	<path d="M274.4,163.7c0.3-0.5,0.8-1,1.4-1.5c0.5-0.4,0.8-0.8,1.1-1.1c0.2-0.3,0.3-0.7,0.3-1.1c0-0.6-0.2-1-0.7-1.3
		c-0.4-0.3-1.1-0.5-1.8-0.5c-1.4,0-2.5,0.5-3.2,1.5l-1.9-1.2c0.6-0.8,1.3-1.4,2.2-1.8s2-0.6,3.2-0.6c1.5,0,2.7,0.3,3.5,1
		c0.9,0.6,1.3,1.5,1.3,2.6c0,0.5-0.1,1-0.3,1.4s-0.4,0.8-0.6,1c-0.3,0.3-0.6,0.6-1,1c-0.5,0.4-0.9,0.8-1.1,1.2
		c-0.2,0.3-0.4,0.8-0.4,1.2h-2.5C273.9,164.8,274.1,164.2,274.4,163.7z M274.1,169.8c-0.3-0.3-0.4-0.7-0.4-1.1s0.1-0.8,0.4-1.1
		c0.3-0.3,0.7-0.4,1.1-0.4c0.5,0,0.8,0.1,1.1,0.4c0.3,0.3,0.4,0.7,0.4,1.1s-0.1,0.8-0.4,1.1c-0.3,0.3-0.7,0.4-1.1,0.4
		C274.7,170.2,274.4,170.1,274.1,169.8z"/>
</g>
<path class="st0" d="M286.9,94.1h-193c-17.5,0-31.7,14.2-31.7,31.7v76.1c0,17.5,14.2,31.7,31.7,31.7h163.4l38.7,31.6l-7.8-31.7
	c16.9-0.7,30.4-14.6,30.4-31.6v-76.1C318.6,108.2,304.4,94.1,286.9,94.1z"/>
</svg>
