<?xml version="1.0" encoding="utf-8"?>
<!-- Generator: Adobe Illustrator 26.0.0, SVG Export Plug-In . SVG Version: 6.00 Build 0)  -->
<svg version="1.1" id="Livello_1" xmlns="http://www.w3.org/2000/svg" xmlns:xlink="http://www.w3.org/1999/xlink" x="0px" y="0px"
	 viewBox="0 0 500 500" style="enable-background:new 0 0 500 500;" xml:space="preserve">
<style type="text/css">
	.st0{fill:none;stroke:#000000;stroke-width:2;stroke-miterlimit:10;}
	.st1{fill:none;stroke:#000000;stroke-width:2;stroke-miterlimit:10;stroke-dasharray:11.9395,11.9395;}
</style>
<path d="M397.8,63.9c-0.2,0-0.3,0-0.5,0c-0.2,0-0.4,0-0.6,0.1l-156.8,66.2c-0.7,0.3-1.2,0.9-1.3,1.6c-0.1,0.7,0.1,1.5,0.6,2
	l34.8,34.8l15.4,53.7c0.2,0.9,1,1.5,1.9,1.6h0.3c0.8,0,1.5-0.4,1.9-1.1l12.7-22l23.6,23.6c0.4,0.4,1,0.6,1.6,0.6c0.1,0,0.3,0,0.4,0
	c0.7-0.2,1.3-0.6,1.6-1.3L399.6,67c0.1-0.2,0-0.4,0.1-0.6c0-0.2,0.1-0.3,0-0.4c0-0.5-0.2-1-0.6-1.3C398.7,64.2,398.2,64,397.8,63.9
	L397.8,63.9z M244.6,133.1l139.9-59l-108.4,90.4L244.6,133.1z M293.9,187.4l-3.2,23.5l-12.2-42.5l101.4-84.6l-85.5,102.5
	C294.1,186.6,293.9,187,293.9,187.4L293.9,187.4z M295.2,210.9l2.5-18.3l5.1,5.2L295.2,210.9z M330.6,219l-31.4-31.5l90.5-108.4
	L330.6,219z"/>
<g>
	<g>
		<path class="st0" d="M289.6,225.2c0,0-0.7,2-2.3,5.5"/>
		<path class="st1" d="M281.6,241.3c-17.6,29.6-68.6,90.9-194.3,101.6c-128,10.9,88.1,15,57.1,104.4"/>
		<path class="st0" d="M142.2,452.8c-0.8,1.8-1.7,3.6-2.6,5.4"/>
	</g>
</g>
</svg>
